<svg xmlns="http://www.w3.org/2000/svg" width="2819" height="2819" viewBox="0 -32 2819 2819"><path d="M2787 1482h-859c-265 0-265 0-523 243-69 65-69 65-134 130 85-217 85-217 88-426 1-107 1-107-15-195-18-99-18-99-73-231 180 185 180 185 289 258 177 118 177 118 368 118h859zM1480 413c-70 69-70 69-199 221-143 199-143 199-143 408v1300h-102V1042c0-207 0-207-143-407-20-27-20-27-202-222 55 18 55 18 167 48 100 21 100 21 231 21 139 0 139 0 216-17 21-5 21-5 175-52zM753 1951c0 34 0 34-9 40.5s-9 6.5-44 6.5l-381-369c-158-123-158-123-287-182v-31c128-68 128-68 285-182l381-373c37 0 37 0 46 6.5s9 6.5 9 40.5l-135 134c-105 173-105 173-105 391 0 215 0 215 109 383z"/></svg>
